<svg id="Capa_1" data-name="Capa 1" xmlns="http://www.w3.org/2000/svg" viewBox="0 0 34.68 17.56"><defs><style>.cls-1{fill:#aeaeae;}</style></defs><title>img-mostar-contrasena</title><path class="cls-1" d="M195.55,114.22c.5-.5,1-1,1.49-1.49A31.21,31.21,0,0,1,200,110.3a30.83,30.83,0,0,1,3.73-2.36,24.19,24.19,0,0,1,3.43-1.49,18.4,18.4,0,0,1,3.66-.87,15.83,15.83,0,0,1,4,0,17.61,17.61,0,0,1,4.11,1c.86.33,1.72.69,2.55,1.09a26.51,26.51,0,0,1,4.11,2.5,34.08,34.08,0,0,1,4.05,3.44l.4.42.21.24-.71.73a32.62,32.62,0,0,1-3.81,3.24,28.27,28.27,0,0,1-3.88,2.42,23,23,0,0,1-3.32,1.42,19.33,19.33,0,0,1-3.44.81,15.91,15.91,0,0,1-4,.05,18.57,18.57,0,0,1-3.89-.88,23.88,23.88,0,0,1-4.31-2,30.45,30.45,0,0,1-5-3.58c-.75-.67-1.46-1.39-2.19-2.08ZM213,108.1a6.12,6.12,0,1,0,6,6.37A6.1,6.1,0,0,0,213,108.1Z" transform="translate(-195.55 -105.44)"/><path class="cls-1" d="M212.88,118.54a4.32,4.32,0,1,1,4.33-4.3A4.32,4.32,0,0,1,212.88,118.54Zm0-5.05a1.57,1.57,0,1,0-1.56-1.57A1.57,1.57,0,0,0,212.88,113.49Z" transform="translate(-195.55 -105.44)"/></svg>