<svg id="Capa_1" data-name="Capa 1" xmlns="http://www.w3.org/2000/svg" viewBox="0 0 34.71 17.56"><defs><style>.cls-1{fill:#aeaeae;}</style></defs><title>img-ocultar-contrasena</title><path class="cls-1" d="M267,114.14c-.58.56-1.14,1.12-1.72,1.66s-1,.88-1.51,1.29a30.24,30.24,0,0,1-4.68,3.16,23.6,23.6,0,0,1-3.78,1.67,19.07,19.07,0,0,1-3.51.83,16.47,16.47,0,0,1-4.15,0,18.62,18.62,0,0,1-3.31-.73l-.13-.06c.36-.35.71-.67,1-1s.94-.92,1.4-1.39c.07-.07.11-.07.2,0a6.12,6.12,0,0,0,8.86-6.21,6.43,6.43,0,0,0-.7-2.16c.22-.21.46-.43.69-.66q1.37-1.35,2.73-2.73a.17.17,0,0,1,.25,0,30.85,30.85,0,0,1,5.38,3.61,30.48,30.48,0,0,1,2.82,2.63Z" transform="translate(-232.29 -105.33)"/><path class="cls-1" d="M254.5,106.07c-.38.38-.75.75-1.13,1.11l-1.2,1.21a.18.18,0,0,1-.24,0,5.77,5.77,0,0,0-2.56-.44,6.11,6.11,0,0,0-5.84,6.2,5.83,5.83,0,0,0,.5,2.34l-1.35,1.34c-.77.77-1.54,1.53-2.3,2.3-.09.09-.15.1-.25,0a32.6,32.6,0,0,1-5.44-3.81,28.9,28.9,0,0,1-2.4-2.31l1.09-1.08a32.11,32.11,0,0,1,5.71-4.41,23.64,23.64,0,0,1,6.07-2.66,16.7,16.7,0,0,1,5.4-.59,18,18,0,0,1,3.85.67Z" transform="translate(-232.29 -105.33)"/><path class="cls-1" d="M257.28,106.92a.93.93,0,0,1-.28.69l-2.29,2.31L252.64,112c-1,1-2.07,2.09-3.1,3.13l-2.19,2.21-3.73,3.77-.9.9a.9.9,0,0,1-1.28,0,.93.93,0,0,1,0-1.3l2.63-2.65,3-3.06,2.74-2.77,2.84-2.86c.82-.82,1.63-1.64,2.44-2.47.22-.21.43-.44.65-.64a.85.85,0,0,1,1-.14A.86.86,0,0,1,257.28,106.92Z" transform="translate(-232.29 -105.33)"/><path class="cls-1" d="M253.69,112.62a4.31,4.31,0,0,1-5.55,5.54Z" transform="translate(-232.29 -105.33)"/><path class="cls-1" d="M245.43,115.12a4.27,4.27,0,0,1,1.32-4.2,4.22,4.22,0,0,1,3.86-1l0,0-.41.37a.19.19,0,0,1-.13,0,1.55,1.55,0,0,0-2,1.36,3.79,3.79,0,0,0,0,.58.3.3,0,0,1,0,.19L245.52,115Z" transform="translate(-232.29 -105.33)"/></svg>