<svg id="Capa_1" data-name="Capa 1" xmlns="http://www.w3.org/2000/svg" viewBox="0 0 47.98 48.57"><defs><style>.cls-1{fill:#aeaeae;}</style></defs><title>img-apellido</title><path class="cls-1" d="M111.06,70.25a21.43,21.43,0,0,1,.26-4.88,23.8,23.8,0,0,1,11.39-16.84c.37-.23.78-.4,1.15-.64a.54.54,0,0,1,.76,0,15,15,0,0,0,5,2.8,16,16,0,0,0,15.32-2.56c.75-.56.73-.59,1.52-.14A23.78,23.78,0,0,1,158.6,64.78a22.17,22.17,0,0,1,.37,5.47Z" transform="translate(-111.02 -21.68)"/><path class="cls-1" d="M134.9,49.07a13.7,13.7,0,1,1,13.71-13.63A13.71,13.71,0,0,1,134.9,49.07Z" transform="translate(-111.02 -21.68)"/></svg>