<svg id="Capa_1" data-name="Capa 1" xmlns="http://www.w3.org/2000/svg" viewBox="0 0 131.01 89.92"><defs><style>.cls-1{fill:#68cf79;}</style></defs><title>img-correo-focus</title><path class="cls-1" d="M101.49,135.19l-64-51.65a41.3,41.3,0,0,1,4.18-1.36,14.6,14.6,0,0,1,3-.05q57.48,0,115,0a29.12,29.12,0,0,1,4.3.62l0,.61Z" transform="translate(-35.86 -82.08)"/><path class="cls-1" d="M117.57,130.08l47,40.85c-1.28.42-2.11.78-3,1a11.34,11.34,0,0,1-2.26.1H43.15c-1.24,0-2.49-.24-3.73-.36l-.2-.57,46.52-40.45,15.8,12.73Z" transform="translate(-35.86 -82.08)"/><path class="cls-1" d="M35.86,166.52V90.3L81.3,127Z" transform="translate(-35.86 -82.08)"/><path class="cls-1" d="M122,126.43l44.89-37.27v76.33Z" transform="translate(-35.86 -82.08)"/></svg>