<svg id="Capa_1" data-name="Capa 1" xmlns="http://www.w3.org/2000/svg" viewBox="0 0 173.54 208.48"><defs><style>.cls-1{fill:#aeaeae;}</style></defs><title>img-contrasena</title><path class="cls-1" d="M232,262q-36.24,0-72.46,0c-7.08,0-11.77-2.94-13.58-8.64a20,20,0,0,1-.92-5.85q-.08-54.15,0-108.3c0-8.14,4.65-13,12.8-13.63,2.82-.23,3.2-2.22,3.33-4.39a68,68,0,0,1,4.87-22.44c10.45-24.54,28.94-39.55,55.1-44.29,26.68-4.83,62.59,9.27,76.06,44.09,2.85,7.36,3.91,15,5,22.69.55,3.67.83,4,4.47,4.35a12.56,12.56,0,0,1,11.68,12.1c.17,3.54.14,7.1.14,10.65q0,48.3,0,96.61a33.81,33.81,0,0,1-.32,6.21C316.93,258,312,262,304.76,262c-16.71,0-33.42,0-50.13,0Zm-13.38-50h0c0,2.34,0,4.67,0,7s-.06,4.85.06,7.27c.16,3.41.86,6.7,3.18,9.39,3.48,4,9.3,5.29,15,3.27a12,12,0,0,0,8-11.6c0-9.6.07-19.2,0-28.81a7,7,0,0,1,2.48-5.7c6.37-5.6,9.27-12.65,9-21.16-.54-18.09-21.09-29.55-36.72-20.38a25.47,25.47,0,0,0-4.17,40.8,8.85,8.85,0,0,1,3.24,7.45C218.53,203.64,218.66,207.8,218.66,212Zm56.11-87c-.83-16.59-7.9-29.36-22.08-37.28-15.25-8.51-30.82-7.8-45.28,2.17-12,8.31-18.08,20.19-18.54,35.11Z" transform="translate(-145.03 -53.52)"/></svg>